<svg class="animated" id="freepik_stories-brain-sides" xmlns="http://www.w3.org/2000/svg" viewBox="0 0 500 500" version="1.1" xmlns:xlink="http://www.w3.org/1999/xlink" xmlns:svgjs="http://svgjs.com/svgjs"><style>svg#freepik_stories-brain-sides:not(.animated) .animable {opacity: 0;}svg#freepik_stories-brain-sides.animated #freepik--Puzzle_pieces--inject-3 {animation: 3s Infinite  linear floating;animation-delay: 0s;}svg#freepik_stories-brain-sides.animated #freepik--Pencil--inject-3 {animation: 3s Infinite  linear floating;animation-delay: 0s;}svg#freepik_stories-brain-sides.animated #freepik--Light_Bulb--inject-3 {animation: 3s Infinite  linear floating;animation-delay: 0s;}svg#freepik_stories-brain-sides.animated #freepik--Pen--inject-3 {animation: 3s Infinite  linear floating;animation-delay: 0s;}svg#freepik_stories-brain-sides.animated #freepik--Atom--inject-3 {animation: 3s Infinite  linear floating;animation-delay: 0s;}            @keyframes floating {                0% {                    opacity: 1;                    transform: translateY(0px);                }                50% {                    transform: translateY(-10px);                }                100% {                    opacity: 1;                    transform: translateY(0px);                }            }        .animator-hidden { display: none; }</style><g id="freepik--Shadow--inject-3" class="animable animator-hidden" style="transform-origin: 250px 464.1px;"><path d="M441.998,464.1c0,3.387-85.96,6.132-191.998,6.132s-191.998-2.745-191.998-6.132,85.96-6.132,191.998-6.132,191.998,2.745,191.998,6.132Z" style="fill: rgb(245, 245, 245); transform-origin: 250px 464.1px;" id="eljdekz7vbo79" class="animable"></path></g><g id="freepik--Puzzle_pieces--inject-3" class="animable" style="transform-origin: 94.9227px 352.379px;"><path d="M109.545,293.033c-2.485,.207-4.581,1.598-5.8,3.567l-3.639,.303-1.691-20.3-19.853,1.654-.145,.012,.237,2.846c1.969,1.219,3.36,3.315,3.567,5.8,.347,4.162-2.747,7.818-6.909,8.165-4.163,.347-7.818-2.746-8.165-6.909-.209-2.514,.841-4.836,2.618-6.363l-.233-2.798-.277,.023-19.786,1.648,1.697,20.364-2.335,.194c-1.527-1.777-3.85-2.828-6.363-2.618-4.162,.347-7.256,4.002-6.909,8.165,.347,4.163,4.002,7.256,8.165,6.909,2.485-.207,4.581-1.598,5.8-3.567l2.383-.199,1.641,19.696,48.946-4.077-1.646-19.761,3.591-.299c1.527,1.777,3.85,2.828,6.363,2.618,4.162-.347,7.256-4.002,6.909-8.165-.347-4.162-4.002-7.256-8.165-6.909Z" style="fill: rgb(175, 126, 17); transform-origin: 76.635px 303.114px;" id="elcq3um45oqxr" class="animable"></path><path d="M138.807,400.508c1.812,1.242,2.802,3.23,2.854,5.27l2.588,1.775,10.064-14.679-14.31-9.811,1.368-1.996c2.137-.055,4.219-1.092,5.52-2.989,2.155-3.143,1.354-7.438-1.789-9.592-3.143-2.155-7.438-1.354-9.592,1.789-1.286,1.876-1.512,4.16-.822,6.157l-1.393,2.032-14.262-9.778-10.032,14.632,2.623,1.799c1.906-.658,4.087-.443,5.878,.785,3,2.057,3.765,6.157,1.708,9.157-2.057,3-6.157,3.765-9.157,1.708-1.812-1.242-2.802-3.23-2.854-5.27l-2.589-1.775-9.766,14.244,35.281,24.189,9.734-14.197-2.623-1.799c-1.906,.658-4.087,.443-5.878-.785-3-2.057-3.765-6.157-1.708-9.157s6.157-3.765,9.157-1.708Z" style="fill: rgb(175, 126, 17); transform-origin: 124.579px 397.716px;" id="elidnc0h4xy9" class="animable"></path></g><g id="freepik--Brain--inject-3" class="animable" style="transform-origin: 250px 257.932px;"><g id="elinpqxqv46xg" class="animable" style="transform-origin: 250px 257.932px;"><g id="elsxwnce032xn" class="animable" style="transform-origin: 251.95px 254.093px;"><rect x="233.921" y="125.435" width="36.059" height="257.317" style="fill: rgb(175, 126, 17); transform-origin: 251.95px 254.094px;" id="el7ei3gasb7d3" class="animable"></rect><g id="elu520ozox0jb"><rect x="233.921" y="125.435" width="36.059" height="257.317" style="opacity: 0.2; transform-origin: 251.95px 254.094px;" class="animable"></rect></g></g><g id="el97kzett376l" class="animable" style="transform-origin: 184.699px 258.172px;"><path d="M238.43,119.401c-34.227-7.403-52.226,13.212-52.226,13.212-11.711,0-13.611,9.478-13.611,9.478-19.308,8.329-19.308,26.999-19.308,26.999,0,0-10.762,11.776-14.56,21.542s0,13.212,0,13.212c0,0-13.407,3.626-7.153,24.057,0,0-16.679,10.424-9.59,53.371,0,0,1.251,12.509,8.756,18.346,0,0-5.837,14.177,7.505,25.435,0,0,11.704,45.449,41.085,53.371,0,0,2.279,15.011,26.045,18.346,0,0,30.855,6.671,37.526-5.838,6.671-12.509,5.42-67.642,5.42-67.642V125.745s-4.101-5.092-9.891-6.345Z" style="fill: rgb(175, 126, 17); transform-origin: 184.32px 258.172px;" id="elzdciruji1q" class="animable"></path><g id="el9ap68f2lbb7"><g style="opacity: 0.1; transform-origin: 212.027px 315.439px;" class="animable"><path d="M184.998,318.675c4.871,1.547,9.779,3.076,14.845,3.749,5.066,.673,10.344,.453,15.101-1.415,4.122-1.619,7.671-4.39,11.498-6.619,3.827-2.228,8.254-3.96,12.613-3.175-5.046-3.593-11.862-3.705-17.865-2.178-6.003,1.527-11.525,4.495-17.313,6.701-5.788,2.206-12.191,3.649-18.155,1.975" id="elucf2pel86jh" class="animable" style="transform-origin: 212.027px 315.439px;"></path></g></g><g id="el2j05q67b908"><g style="opacity: 0.1; transform-origin: 188.359px 348.499px;" class="animable"><path d="M221.609,380.633c-7.956-3.849-5.232-15.697-5.232-15.697-6.248,3.768-19.787,10.68-37.893-2.14-9.557-6.767-10.573-16.839-10.066-24.118-8.735,6.474-14.68,1.18-21.342-7.413-6.662-8.593-8.192-20.029-8.694-30.89-3.095,.162-6.208-.541-8.979-1.925,.422,.413,.867,.804,1.337,1.169,0,0-5.837,14.177,7.505,25.435,0,0,11.704,45.449,41.085,53.371,0,0,2.279,15.011,26.045,18.346,0,0,30.855,6.671,37.526-5.838,2.264-4.245,3.615-13.402,4.413-23.646-5.998,2.911-4.413,23.646-25.705,13.346Z" id="el5epa6di8dme" class="animable" style="transform-origin: 188.359px 348.499px;"></path></g></g><g id="eld77xxcsrpt" class="animable" style="transform-origin: 188.274px 261.71px;"><path d="M249.171,191.974c-6.512-8.475-18.096-12.703-28.42-10.032-5.114,1.285-9.808,3.903-14.238,6.877-4.456,2.962-8.749,6.259-13.391,9.147-9.298,5.723-19.686,9.668-30.434,11.476-5.314,1.084-11.812,.764-15.572-3.727-3.814-4.115-4.149-10.843-.79-15.276-2.876,4.521-2.352,10.878,1.505,14.605,3.776,4.041,9.512,3.978,14.577,2.862,10.487-2.084,20.593-6.021,29.663-11.641,4.55-2.782,8.837-6.065,13.406-9.025,4.56-2.93,9.476-5.637,14.92-6.812,10.764-2.514,22.771,2.375,28.774,11.546h0Z" style="fill: rgb(175, 126, 17); transform-origin: 196.593px 194.868px;" id="el6bdgfd927v7" class="animable"></path><path d="M179.762,187.733c-6.427,1.438-12.162-4.825-12.647-10.952-.745-6.151,1.895-12.163,5.324-17.081-.961,2.832-2.006,5.595-2.691,8.404-2.313,8.147,.208,18.753,10.014,19.629h0Z" style="fill: rgb(175, 126, 17); transform-origin: 173.375px 173.821px;" id="elj4mhz6oa4d" class="animable"></path><path d="M174.833,186.813c-6.91-2.352-14.435-.068-18.894,5.707,1.963-7.808,12.936-11.113,18.894-5.707h0Z" style="fill: rgb(175, 126, 17); transform-origin: 165.386px 188.337px;" id="elolwrrnhszhm" class="animable"></path><path d="M216.444,182.384c2.718-3.456,3.004-8.088,1.659-12.119-2.749-8.328-11.959-12.013-19.949-13.494-4.155-.698-8.841-.741-12.154,2.296,2.742-3.747,8.057-4.314,12.367-3.842,6.622,.777,13.618,3.184,18.073,8.47,4.385,5.08,5.33,13.98,.004,18.689h0Z" style="fill: rgb(175, 126, 17); transform-origin: 203.046px 168.734px;" id="elaq1ysgc03fa" class="animable"></path><path d="M186.695,145.853c-1.348,9.914-1.683,16.731,9.136,20.593-11.964-.342-14.001-11.502-9.136-20.593h0Z" style="fill: rgb(175, 126, 17); transform-origin: 190.037px 156.149px;" id="elonzigerw5aa" class="animable"></path><path d="M248.173,172.916c-5.887-9.718-21.153-9.565-25.063-20.91,6.121,9.47,21.421,9.388,25.063,20.91h0Z" style="fill: rgb(175, 126, 17); transform-origin: 235.642px 162.461px;" id="elo0rsipdo74a" class="animable"></path><path d="M220.653,126.017c-9.092,4.772-7.024,17.698,2.988,19.258,4.305,.902,8.972,.051,13.736,.736,4.588,.523,9.827,3.665,10.019,8.721-1.044-4.643-5.832-6.902-10.197-7.17-6.525-.472-15.106,1.782-20.55-3.645-5.688-5.514-3.629-15.567,4.005-17.899h0Z" style="fill: rgb(175, 126, 17); transform-origin: 230.398px 140.374px;" id="el7n81cbiai1o" class="animable"></path><path d="M131.721,228.018c6.042,.225,9.794-4.491,14.966-6.914,5.254-2.44,11.629-2.818,16.935-.47-2.826-.358-5.603-.374-8.312-.002-2.702,.386-5.336,1.123-7.773,2.282-4.749,2.223-10.064,7.094-15.815,5.105h0Z" style="fill: rgb(175, 126, 17); transform-origin: 147.671px 223.773px;" id="elnc3hmzghqni" class="animable"></path><path d="M144.348,232.399c18.077,4.721,37.863,2.186,53.942-7.24,8.051-4.617,15.402-11.91,25.246-12.668,9.939-.837,18.223,6.75,23.085,14.646-4.195-5.523-9.479-10.6-16.231-12.539-12.044-3.308-21.46,6.666-31.089,12.286-16.384,9.588-37.071,11.854-54.953,5.516h0Z" style="fill: rgb(175, 126, 17); transform-origin: 195.484px 224.198px;" id="el23v77wbmrka" class="animable"></path><path d="M230.763,244.279c3.442,3.4,8.878,3.893,13.438,4.726,1.623,.207,3.262,.362,4.97,.605-5.33,2.082-16.329,.893-18.408-5.331h0Z" style="fill: rgb(175, 126, 17); transform-origin: 239.967px 247.416px;" id="eltc4f277mgp8" class="animable"></path><path d="M247.957,270.905c-9.304,8.109-23.482-2.402-32.687,6.066-6.393,5.324-10.718,14.807-19.611,17.152-2.863,.898-5.767,1.338-8.557,1.937-5.56,1.063-10.79,3.52-15.024,7.224-8.602,7.231-12.135,20.397-6.768,30.568,2.574,5.048,7.129,9.161,12.643,10.989-5.663-1.395-10.54-5.43-13.503-10.519-6.139-10.515-2.656-24.689,6.374-32.457,4.448-3.983,10.062-6.62,15.865-7.761,4.233-.898,8.454-1.343,12.194-3.443,6.313-3.62,9.665-10.493,15.424-14.911,10.377-8.849,23.529,2.64,33.649-4.845h0Z" style="fill: rgb(175, 126, 17); transform-origin: 204.661px 307.873px;" id="elf13hh6zh6ld" class="animable"></path><path d="M177.581,332.997c3.582-4.252,5.824-9.084,6.79-14.558,2.005,5.525-1.275,12.536-6.79,14.558h0Z" style="fill: rgb(175, 126, 17); transform-origin: 181.273px 325.718px;" id="elc7sbflpwlhl" class="animable"></path><path d="M176.341,316.623c12.135,2.672,24.197-1.006,35.51-5.258,8.52-3.223,18.528-6.408,27.246-2.022,2.792,1.411,5.298,3.554,6.671,6.328-1.76-2.527-4.279-4.375-7.071-5.433-11.899-4.67-23.589,2.878-34.931,5.932-8.843,2.503-18.62,3.675-27.425,.453h0Z" style="fill: rgb(175, 126, 17); transform-origin: 211.055px 312.891px;" id="el6zrbevzdwcv" class="animable"></path><path d="M249.084,341.321c-12.298,10.698-32.527,11.235-45.363,1.181,14.147,7.316,31.618,6.872,45.363-1.181h0Z" style="fill: rgb(175, 126, 17); transform-origin: 226.403px 345.514px;" id="eli6i9hpbr1u" class="animable"></path><path d="M178.484,377.845c12.842,.264,25.408-3.301,36.212-10.244-9.128,9.308-23.562,13.381-36.212,10.244h0Z" style="fill: rgb(175, 126, 17); transform-origin: 196.59px 373.245px;" id="elufqm5ks0tph" class="animable"></path><path d="M155.438,360.449c-2.544-9.102,3.757-19.688,12.98-21.772-1.919,1.261-3.664,2.626-5.215,4.167-4.771,4.661-7.29,10.97-7.764,17.604h0Z" style="fill: rgb(175, 126, 17); transform-origin: 161.644px 349.563px;" id="elti4sggcvas" class="animable"></path><path d="M168.915,303.686c-22.414-8.691-38.192-32.121-37.791-56.161,2.644,23.746,16.783,44.776,37.791,56.161h0Z" style="fill: rgb(175, 126, 17); transform-origin: 150.016px 275.606px;" id="elaph1pmquk2u" class="animable"></path><path d="M136.119,270.75c-3.773,1.01-5.72,4.274-7.06,7.669-.476,1.166-.926,2.394-1.568,3.597-.326-2.72,.021-5.495,1.437-7.91,1.392-2.361,4.446-4.351,7.191-3.357h0Z" style="fill: rgb(175, 126, 17); transform-origin: 131.748px 276.252px;" id="eldww1d471me8" class="animable"></path><path d="M129.979,297.492c6.171,3.204,13.305,3.144,19.433-.136-4.554,5.959-14.793,6.022-19.433,.136h0Z" style="fill: rgb(175, 126, 17); transform-origin: 139.696px 299.611px;" id="elg8c3tb4vn7w" class="animable"></path><path d="M208.197,221.346c5.283,5.876,6.856,14.164,7.179,21.855,.983,20.898-15.083,25.622-32.824,24.596-7.781-.592-15.446-2.95-22.17-6.865,7.054,3.198,14.642,4.989,22.264,5.307,10.434,.15,24.655-1.037,29.247-12.013,1.461-3.396,1.881-7.217,1.929-11.005-.052-7.581-1.04-15.562-5.624-21.875h0Z" style="fill: rgb(175, 126, 17); transform-origin: 187.9px 244.637px;" id="elpwexvbmxcdd" class="animable"></path><path d="M185.553,232.778c.771,3.761,.892,7.715-.524,11.383-1.389,3.584-5.019,7.001-9.05,6.496,7.634-2.512,8.313-11.113,9.573-17.879h0Z" style="fill: rgb(175, 126, 17); transform-origin: 181.049px 241.742px;" id="ellr7psm8slu" class="animable"></path><path d="M193.821,165.175c-1.812,5.555-1.657,11.286,.422,16.745-4.748-4.039-4.951-12.468-.422-16.745h0Z" style="fill: rgb(175, 126, 17); transform-origin: 192.396px 173.548px;" id="eljbk35pn197" class="animable"></path><path d="M193.838,132.697c3.007,4.973,7.534,8.794,13.17,10.274,1.838,.497,3.754,.767,5.775,.874-7.894,2.945-17.678-2.823-18.945-11.147h0Z" style="fill: rgb(175, 126, 17); transform-origin: 203.31px 138.661px;" id="elrc9jai5s93" class="animable"></path><path d="M199.143,290.967c-4.063-6.941-12.341-9.209-19.922-8.81-2.59,.086-5.203,.383-7.868,.608,4.976-2.059,10.509-3.077,15.89-2.021,5.278,1.074,10.666,4.777,11.9,10.223h0Z" style="fill: rgb(175, 126, 17); transform-origin: 185.248px 285.644px;" id="elspc9d9xkech" class="animable"></path><path d="M232.306,397.404c-2.702-6.535-7.641-11.67-14.051-14.653,7.441,.147,14.207,7.216,14.051,14.653h0Z" style="fill: rgb(175, 126, 17); transform-origin: 225.282px 390.077px;" id="eluy6vlxde8vs" class="animable"></path><path d="M226.293,386.064c6.14-7.065,13.312-15.729,8.307-25.449,3.903,3.559,3.975,9.879,1.923,14.486-2.127,4.691-5.968,8.271-10.23,10.962h0Z" style="fill: rgb(175, 126, 17); transform-origin: 232.076px 373.339px;" id="el8dyclxexrxo" class="animable"></path></g><g id="el1dc63rtiyzo"><g style="opacity: 0.3; transform-origin: 188.274px 261.71px;" class="animable"><path d="M249.171,191.974c-6.512-8.475-18.096-12.703-28.42-10.032-5.114,1.285-9.808,3.903-14.238,6.877-4.456,2.962-8.749,6.259-13.391,9.147-9.298,5.723-19.686,9.668-30.434,11.476-5.314,1.084-11.812,.764-15.572-3.727-3.814-4.115-4.149-10.843-.79-15.276-2.876,4.521-2.352,10.878,1.505,14.605,3.776,4.041,9.512,3.978,14.577,2.862,10.487-2.084,20.593-6.021,29.663-11.641,4.55-2.782,8.837-6.065,13.406-9.025,4.56-2.93,9.476-5.637,14.92-6.812,10.764-2.514,22.771,2.375,28.774,11.546h0Z" id="elt6c1auq0w4p" class="animable" style="transform-origin: 196.593px 194.868px;"></path><path d="M179.762,187.733c-6.427,1.438-12.162-4.825-12.647-10.952-.745-6.151,1.895-12.163,5.324-17.081-.961,2.832-2.006,5.595-2.691,8.404-2.313,8.147,.208,18.753,10.014,19.629h0Z" id="elurnlwwcbq3" class="animable" style="transform-origin: 173.375px 173.821px;"></path><path d="M174.833,186.813c-6.91-2.352-14.435-.068-18.894,5.707,1.963-7.808,12.936-11.113,18.894-5.707h0Z" id="elhffsmq0ty9u" class="animable" style="transform-origin: 165.386px 188.337px;"></path><path d="M216.444,182.384c2.718-3.456,3.004-8.088,1.659-12.119-2.749-8.328-11.959-12.013-19.949-13.494-4.155-.698-8.841-.741-12.154,2.296,2.742-3.747,8.057-4.314,12.367-3.842,6.622,.777,13.618,3.184,18.073,8.47,4.385,5.08,5.33,13.98,.004,18.689h0Z" id="el2czvdpf050y" class="animable" style="transform-origin: 203.046px 168.734px;"></path><path d="M186.695,145.853c-1.348,9.914-1.683,16.731,9.136,20.593-11.964-.342-14.001-11.502-9.136-20.593h0Z" id="elpwvjdk5m1h9" class="animable" style="transform-origin: 190.037px 156.149px;"></path><path d="M248.173,172.916c-5.887-9.718-21.153-9.565-25.063-20.91,6.121,9.47,21.421,9.388,25.063,20.91h0Z" id="elh6a44fyss2w" class="animable" style="transform-origin: 235.642px 162.461px;"></path><path d="M220.653,126.017c-9.092,4.772-7.024,17.698,2.988,19.258,4.305,.902,8.972,.051,13.736,.736,4.588,.523,9.827,3.665,10.019,8.721-1.044-4.643-5.832-6.902-10.197-7.17-6.525-.472-15.106,1.782-20.55-3.645-5.688-5.514-3.629-15.567,4.005-17.899h0Z" id="el9ivi3atrxz" class="animable" style="transform-origin: 230.398px 140.374px;"></path><path d="M131.721,228.018c6.042,.225,9.794-4.491,14.966-6.914,5.254-2.44,11.629-2.818,16.935-.47-2.826-.358-5.603-.374-8.312-.002-2.702,.386-5.336,1.123-7.773,2.282-4.749,2.223-10.064,7.094-15.815,5.105h0Z" id="elgb2lsqv065" class="animable" style="transform-origin: 147.671px 223.773px;"></path><path d="M144.348,232.399c18.077,4.721,37.863,2.186,53.942-7.24,8.051-4.617,15.402-11.91,25.246-12.668,9.939-.837,18.223,6.75,23.085,14.646-4.195-5.523-9.479-10.6-16.231-12.539-12.044-3.308-21.46,6.666-31.089,12.286-16.384,9.588-37.071,11.854-54.953,5.516h0Z" id="elf1uzivt1pu" class="animable" style="transform-origin: 195.484px 224.198px;"></path><path d="M230.763,244.279c3.442,3.4,8.878,3.893,13.438,4.726,1.623,.207,3.262,.362,4.97,.605-5.33,2.082-16.329,.893-18.408-5.331h0Z" id="el0olqzilsy91" class="animable" style="transform-origin: 239.967px 247.416px;"></path><path d="M247.957,270.905c-9.304,8.109-23.482-2.402-32.687,6.066-6.393,5.324-10.718,14.807-19.611,17.152-2.863,.898-5.767,1.338-8.557,1.937-5.56,1.063-10.79,3.52-15.024,7.224-8.602,7.231-12.135,20.397-6.768,30.568,2.574,5.048,7.129,9.161,12.643,10.989-5.663-1.395-10.54-5.43-13.503-10.519-6.139-10.515-2.656-24.689,6.374-32.457,4.448-3.983,10.062-6.62,15.865-7.761,4.233-.898,8.454-1.343,12.194-3.443,6.313-3.62,9.665-10.493,15.424-14.911,10.377-8.849,23.529,2.64,33.649-4.845h0Z" id="el8qago6653xj" class="animable" style="transform-origin: 204.661px 307.873px;"></path><path d="M177.581,332.997c3.582-4.252,5.824-9.084,6.79-14.558,2.005,5.525-1.275,12.536-6.79,14.558h0Z" id="elb5nk01uc4bd" class="animable" style="transform-origin: 181.273px 325.718px;"></path><path d="M176.341,316.623c12.135,2.672,24.197-1.006,35.51-5.258,8.52-3.223,18.528-6.408,27.246-2.022,2.792,1.411,5.298,3.554,6.671,6.328-1.76-2.527-4.279-4.375-7.071-5.433-11.899-4.67-23.589,2.878-34.931,5.932-8.843,2.503-18.62,3.675-27.425,.453h0Z" id="el8yfjdadsoio" class="animable" style="transform-origin: 211.055px 312.891px;"></path><path d="M249.084,341.321c-12.298,10.698-32.527,11.235-45.363,1.181,14.147,7.316,31.618,6.872,45.363-1.181h0Z" id="eli6o8xz56a48" class="animable" style="transform-origin: 226.403px 345.514px;"></path><path d="M178.484,377.845c12.842,.264,25.408-3.301,36.212-10.244-9.128,9.308-23.562,13.381-36.212,10.244h0Z" id="eltn6u85fuxa" class="animable" style="transform-origin: 196.59px 373.245px;"></path><path d="M155.438,360.449c-2.544-9.102,3.757-19.688,12.98-21.772-1.919,1.261-3.664,2.626-5.215,4.167-4.771,4.661-7.29,10.97-7.764,17.604h0Z" id="elfb55o5uprra" class="animable" style="transform-origin: 161.644px 349.563px;"></path><path d="M168.915,303.686c-22.414-8.691-38.192-32.121-37.791-56.161,2.644,23.746,16.783,44.776,37.791,56.161h0Z" id="el9stm4l633hl" class="animable" style="transform-origin: 150.016px 275.606px;"></path><path d="M136.119,270.75c-3.773,1.01-5.72,4.274-7.06,7.669-.476,1.166-.926,2.394-1.568,3.597-.326-2.72,.021-5.495,1.437-7.91,1.392-2.361,4.446-4.351,7.191-3.357h0Z" id="elv8mzb4hayf" class="animable" style="transform-origin: 131.748px 276.252px;"></path><path d="M129.979,297.492c6.171,3.204,13.305,3.144,19.433-.136-4.554,5.959-14.793,6.022-19.433,.136h0Z" id="el11zhnaeylwwg" class="animable" style="transform-origin: 139.696px 299.611px;"></path><path d="M208.197,221.346c5.283,5.876,6.856,14.164,7.179,21.855,.983,20.898-15.083,25.622-32.824,24.596-7.781-.592-15.446-2.95-22.17-6.865,7.054,3.198,14.642,4.989,22.264,5.307,10.434,.15,24.655-1.037,29.247-12.013,1.461-3.396,1.881-7.217,1.929-11.005-.052-7.581-1.04-15.562-5.624-21.875h0Z" id="elk4wd2mow4ya" class="animable" style="transform-origin: 187.9px 244.637px;"></path><path d="M185.553,232.778c.771,3.761,.892,7.715-.524,11.383-1.389,3.584-5.019,7.001-9.05,6.496,7.634-2.512,8.313-11.113,9.573-17.879h0Z" id="elgq3lpecelcu" class="animable" style="transform-origin: 181.049px 241.742px;"></path><path d="M193.821,165.175c-1.812,5.555-1.657,11.286,.422,16.745-4.748-4.039-4.951-12.468-.422-16.745h0Z" id="elxphae9a3uxo" class="animable" style="transform-origin: 192.396px 173.548px;"></path><path d="M193.838,132.697c3.007,4.973,7.534,8.794,13.17,10.274,1.838,.497,3.754,.767,5.775,.874-7.894,2.945-17.678-2.823-18.945-11.147h0Z" id="el8tvmkzl5kzk" class="animable" style="transform-origin: 203.31px 138.661px;"></path><path d="M199.143,290.967c-4.063-6.941-12.341-9.209-19.922-8.81-2.59,.086-5.203,.383-7.868,.608,4.976-2.059,10.509-3.077,15.89-2.021,5.278,1.074,10.666,4.777,11.9,10.223h0Z" id="elttoqfyadev" class="animable" style="transform-origin: 185.248px 285.644px;"></path><path d="M232.306,397.404c-2.702-6.535-7.641-11.67-14.051-14.653,7.441,.147,14.207,7.216,14.051,14.653h0Z" id="elg3iufb0zb7i" class="animable" style="transform-origin: 225.282px 390.077px;"></path><path d="M226.293,386.064c6.14-7.065,13.312-15.729,8.307-25.449,3.903,3.559,3.975,9.879,1.923,14.486-2.127,4.691-5.968,8.271-10.23,10.962h0Z" id="elc6wny97501a" class="animable" style="transform-origin: 232.076px 373.339px;"></path></g></g><g id="ely1tkdvu7fq"><g style="opacity: 0.2; transform-origin: 153.772px 260.186px;" class="animable"><path d="M167.726,239.353c-1.703-.058-3.368,.443-5.028,.826-9.02,2.082-18.806,.641-26.843-3.953l-.753,1.101c1.571,14.989,7.473,29.499,16.81,41.33,2.409,3.053,5.859,6.216,9.648,5.341,3.59-.829,5.447-5.149,4.834-8.782-.613-3.633-3.004-6.68-5.366-9.507-2.362-2.827-4.852-5.752-5.736-9.329-.464-1.876,.021-4.473,1.933-4.754,1.778-.261,2.994,1.707,4.582,2.548,1.852,.98,4.231,.302,5.815-1.071,1.583-1.373,2.546-3.307,3.469-5.189,.963-1.964,1.931-4.302,.923-6.244-.785-1.513-2.586-2.26-4.289-2.318Z" style="fill: rgb(255, 255, 255); transform-origin: 153.772px 260.186px;" id="elmgdm9xfaqbg" class="animable"></path></g></g><g id="eltgbxgpi9y"><g style="opacity: 0.2; transform-origin: 141.963px 215.87px;" class="animable"><path d="M136.497,223.373c.9,.301,1.841-.254,2.627-.784,2.832-1.91,5.664-3.821,8.496-5.731,.579-.391,1.225-.904,1.203-1.602-.015-.472-.34-.869-.659-1.217-2.025-2.21-4.459-4.044-7.142-5.381l-.842-.375c-2.058,.886-3.472,2.883-4.179,5.009s-.802,4.4-.891,6.639c-.053,1.332,.123,3.019,1.387,3.442Z" style="fill: rgb(255, 255, 255); transform-origin: 141.963px 215.87px;" id="elcg6jxri43j4" class="animable"></path></g></g><g id="elg274kcc5m2"><g style="opacity: 0.2; transform-origin: 162.232px 196.144px;" class="animable"><path d="M174.178,194.602c-.045-1.824-2.116-2.907-3.931-3.086-3.359-.331-6.62,1.014-9.875,1.908s-7.028,1.258-9.746-.742l-.292,1.389c-.34,2.167,1.06,4.334,2.951,5.447,1.891,1.112,4.171,1.347,6.364,1.299,3.949-.085,7.878-1.011,11.449-2.697,1.495-.706,3.122-1.865,3.082-3.518Z" style="fill: rgb(255, 255, 255); transform-origin: 162.232px 196.144px;" id="eljaf8l3j5pwo" class="animable"></path></g></g><g id="elb2zukcxl3w"><g style="opacity: 0.2; transform-origin: 184.998px 175.578px;" class="animable"><path d="M177.518,164.671c-1.033,1.667-1.255,3.703-1.317,5.664-.107,3.389,.198,6.842,1.431,10.002,1.232,3.159,3.467,6.014,6.506,7.518,3.039,1.504,6.909,1.478,9.677-.48-4.502-1.489-7.221-6.171-8.261-10.797-1.041-4.626-.817-9.448-1.627-14.12l-1.438-.089c-1.885-.543-3.937,.636-4.971,2.303Z" style="fill: rgb(255, 255, 255); transform-origin: 184.998px 175.578px;" id="elqksentt90v" class="animable"></path></g></g><g id="elprr8kyu4fq"><g style="opacity: 0.2; transform-origin: 203.891px 171.455px;" class="animable"><path d="M206.349,177.796c1.821-1.414,3.239-3.537,3.231-5.842-.01-3.196-2.599-5.714-4.996-7.829-.943-.832-1.941-1.693-3.167-1.975-1.226-.282-2.735,.241-3.115,1.44-.193,.608-.069,1.266,.057,1.892,.955,4.77,1.91,9.541,2.865,14.311l-1.056,1.041c2.161-.802,4.36-1.625,6.181-3.039Z" style="fill: rgb(255, 255, 255); transform-origin: 203.891px 171.455px;" id="elxmvk5g6ct9i" class="animable"></path></g></g><g id="elt8j91dne18i"><g style="opacity: 0.2; transform-origin: 219.117px 162.864px;" class="animable"><path d="M236.846,171.506c-3.139-1.017-6.603-1.46-9.175-3.527-2.346-1.886-3.545-4.805-4.911-7.488-1.874-3.682-4.291-7.197-7.655-9.595-5.918-4.219-14.527-4.203-20.429,.037,7.189-.807,14.666,1.342,20.33,5.843s9.445,11.3,10.282,18.486l.425,.866c5.994-.542,12.092,.093,17.846,1.857-.286-3.287-3.573-5.462-6.712-6.48Z" style="fill: rgb(255, 255, 255); transform-origin: 219.117px 162.864px;" id="el6xx54o98up6" class="animable"></path></g></g><g id="elllx7e3qiqwd"><g style="opacity: 0.2; transform-origin: 233.616px 133.474px;" class="animable"><path d="M245.245,136.988c-.858-3.984-2.439-7.81-4.643-11.238l-2.195-1.026c-4.916-1.396-10.531,.031-14.183,3.605-1.439,1.408-2.63,3.292-2.469,5.299,.194,2.421,2.255,4.254,4.338,5.503,4.571,2.743,10.021,3.995,15.331,3.524,1.188-.106,2.467-.346,3.267-1.23,1.04-1.15,.881-2.921,.554-4.437Z" style="fill: rgb(255, 255, 255); transform-origin: 233.616px 133.474px;" id="elpfxggmn7g7n" class="animable"></path></g></g><g id="el6pniu0vgdwi"><g style="opacity: 0.2; transform-origin: 204.691px 131.761px;" class="animable"><path d="M203.532,135.042c1.345,.99,3.223,1.991,4.548,.974,.84-.645,1.01-1.821,1.115-2.875,.197-1.984,.17-4.432-1.566-5.412l-1.36-.505c-1.093-.12-2.206-.239-3.283-.021-1.077,.217-2.133,.828-2.609,1.819-.535,1.113-.228,2.483,.459,3.509,.687,1.026,1.702,1.779,2.697,2.511Z" style="fill: rgb(255, 255, 255); transform-origin: 204.691px 131.761px;" id="el3tyursmoiol" class="animable"></path></g></g><g id="el3dsiv1pt048"><g style="opacity: 0.2; transform-origin: 198.204px 208.531px;" class="animable"><path d="M233.4,187.248c-6.933-2.791-14.875,.209-21.065,4.397-8.836,5.976-15.825,14.254-23.86,21.27-8.035,7.016-17.869,12.997-28.534,12.773-1.655-.035-3.455-.181-4.815,.762-1.36,.944-1.543,3.507,.043,3.98l1.266,.468c7.69-.354,15.414-.712,22.964-2.216,7.55-1.503,14.977-4.21,21.114-8.858,4.07-3.083,7.501-6.96,11.671-9.906,4.169-2.947,9.475-4.933,14.378-3.509,3.464,1.006,6.729,3.657,10.252,2.88,3.392-.748,5.337-4.494,5.532-7.962,.333-5.926-3.438-11.862-8.944-14.079Z" style="fill: rgb(255, 255, 255); transform-origin: 198.204px 208.531px;" id="el8xyd9a4t6lh" class="animable"></path></g></g><g id="elozx2yd2bfv9"><g style="opacity: 0.2; transform-origin: 194.758px 246.085px;" class="animable"><path d="M206.288,234.48c-.705-1.025-1.781-1.853-3.015-2.003l-1.271-.012c-2.652-.72-5.712,.515-7.12,2.875-1.638,2.745-1.008,6.246-1.781,9.347-1.221,4.898-5.734,8.196-10.145,10.65-.562,.313-1.144,.632-1.546,1.135-.402,.503-.579,1.245-.247,1.797,.238,.396,.68,.617,1.109,.788,3.891,1.556,8.285,.69,12.356-.303,3.659-.893,7.475-1.972,10.148-4.626,2.039-2.025,3.212-4.819,3.595-7.667,.383-2.848,.02-5.756-.688-8.541-.306-1.205-.687-2.415-1.392-3.44Z" style="fill: rgb(255, 255, 255); transform-origin: 194.758px 246.085px;" id="el4rxinj9wvep" class="animable"></path></g></g><g id="elg3z7y4h22zh"><g style="opacity: 0.2; transform-origin: 229.379px 230.192px;" class="animable"><path d="M227.26,220.95c-2.233-.414-3.161-.416-5.28,.488-2.144,.915-3.939,2.837-4.284,5.142-.36,2.405,.857,4.785,2.417,6.65,4.169,4.984,11.16,7.428,17.526,6.125,.952-.195,1.935-.494,2.608-1.194,1.207-1.257,.983-3.294,.442-4.95-1.968-6.025-7.255-10.838-13.429-12.261Z" style="fill: rgb(255, 255, 255); transform-origin: 229.379px 230.192px;" id="eloyptuw404a" class="animable"></path></g></g><g id="eld4ilex4q4g"><g style="opacity: 0.1; transform-origin: 227.189px 220.929px;" class="animable"><path d="M227.043,220.895c.073,.016,.144,.038,.217,.055,.027,.005,.048,.008,.075,.013l-.292-.068Z" style="fill: rgb(255, 255, 255); transform-origin: 227.189px 220.929px;" id="elx1k27px4rvj" class="animable"></path></g></g><g id="elsuyos0otw9"><g style="opacity: 0.2; transform-origin: 171.806px 211.541px;" class="animable"><path d="M184.672,207.213c-8.236,3.358-16.91,5.64-25.732,6.771,7.227,3.772,19.606,2.069,25.732-6.771Z" style="fill: rgb(255, 255, 255); transform-origin: 171.806px 211.541px;" id="elv85czu8io" class="animable"></path></g></g><g id="elz4g6nydwow"><g style="opacity: 0.2; transform-origin: 171.229px 158.522px;" class="animable"><path d="M172.019,156.216c.56-.456,1.191-.896,1.912-.941,.721-.044,1.52,.473,1.52,1.195,0,.628-.485,1.454,.068,1.751,.359,.193,.77-.127,1.051-.421,.77-.806,1.552-1.629,2.048-2.627,.497-.998,.674-2.217,.199-3.225-.59-1.252-1.976-2.299-3.361-2.313-1.331-.014-2.577,.167-3.821,.618-3.332,1.082-6.132,3.697-7.433,6.95-1.307,3.269-1.076,7.117,.613,10.206,1.361-4.29,3.715-8.352,7.205-11.194Z" style="fill: rgb(255, 255, 255); transform-origin: 171.229px 158.522px;" id="eldtqr7wtxrzo" class="animable"></path></g></g><g id="el14mli2jezw7"><g style="opacity: 0.1; transform-origin: 171.584px 150.269px;" class="animable"><path d="M171.485,150.302c.05-.019,.1-.03,.149-.048,.016-.005,.032-.013,.048-.018l-.197,.067Z" style="fill: rgb(255, 255, 255); transform-origin: 171.584px 150.269px;" id="elooahsm83ofh" class="animable"></path></g></g><g id="el7rzms54n1pl"><g style="opacity: 0.2; transform-origin: 156.343px 181.926px;" class="animable"><path d="M149.414,186.677c4.549-2.428,9.098-4.856,13.647-7.283,.361-.193,.775-.476,.746-.884-.028-.395-.455-.622-.829-.753-2.076-.728-4.354-.873-6.506-.414-4.404,1.448-6.395,4.417-7.562,8.904-.045,.173-.067,.399,.085,.492,.126,.077,.287,.007,.417-.062Z" style="fill: rgb(255, 255, 255); transform-origin: 156.343px 181.926px;" id="el8x42w706yki" class="animable"></path></g></g><g id="elt9124nf1ux"><g style="opacity: 0.3; transform-origin: 185.434px 180.409px;" class="animable"><path d="M238.43,119.4c-34.227-7.403-52.226,13.212-52.226,13.212-11.711,0-13.611,9.478-13.611,9.478-19.308,8.329-19.308,26.999-19.308,26.999,0,0-10.762,11.776-14.56,21.542-3.798,9.766,0,13.212,0,13.212,0,0-13.407,3.626-7.153,24.057,0,0-5.704,3.57-9.023,15.123,2.803-4.107,6.613-7.509,11.131-9.612,1.008-.469,2.163-1.008,2.471-2.076,.273-.948-.241-1.922-.699-2.796-2.341-4.468-3.6-9.815-1.947-14.581,1.653-4.765,6.901-8.445,11.76-7.091-4.82-6.279-5.844-15.256-2.562-22.459,3.282-7.203,10.729-12.32,18.629-12.802-3.381-4.88-3.575-11.767-.475-16.83,3.101-5.063,9.323-8.019,15.207-7.225-1.046-3.393,.253-7.378,3.099-9.501s7.036-2.235,9.99-.266c1.92-6.885,24.524-27.832,59.166-11.726v-.313s-4.101-5.092-9.891-6.345Z" style="fill: rgb(255, 255, 255); transform-origin: 185.434px 180.409px;" id="el0x87r4flo41" class="animable"></path></g></g><g id="elmrbi46380as"><g style="opacity: 0.1; transform-origin: 196.411px 281.88px;" class="animable"><path d="M174.385,281.267c3.439-3.054,8.213-4.547,12.779-3.995,4.566,.552,8.848,3.139,11.46,6.924,4.545-6.474,11.952-10.858,19.814-11.727-5.714,6.756-11.498,13.578-18.625,18.822-4.912-7.829-15.356-11.689-24.179-8.938" id="elw5vnyiasnt" class="animable" style="transform-origin: 196.411px 281.88px;"></path></g></g><g id="elu8son0x16w"><g style="opacity: 0.1; transform-origin: 151.852px 287.075px;" class="animable"><path d="M135.533,271.178c1.068,8.2,4.917,16.013,10.768,21.857,5.851,5.844,13.669,9.684,21.87,10.742-13.281-8.404-25.895-19.048-32.292-33.405" id="eluraiqqg0zp" class="animable" style="transform-origin: 151.852px 287.075px;"></path></g></g><g id="elj7g20dep89i"><g style="opacity: 0.1; transform-origin: 194.964px 249.378px;" class="animable"><path d="M218.007,243.767c-.783-5.465-2.774-10.673-4.75-15.828,.564,5.809,.694,11.653,.668,17.489-.018,4.044-.174,8.311-2.311,11.745-2.161,3.473-6.024,5.525-9.91,6.801-7.867,2.584-16.317,2.603-24.596,2.457l-5.518-.102c7.626,2.524,15.516,4.846,23.539,4.442,8.022-.405,16.305-4.016,20.358-10.951,2.785-4.766,3.303-10.589,2.52-16.054Z" id="elwenb293wk5p" class="animable" style="transform-origin: 194.964px 249.378px;"></path></g></g><g id="elnntyi37ghwq"><g style="opacity: 0.1; transform-origin: 194.913px 225.397px;" class="animable"><path d="M206.107,221.589c-5.385,3.426-10.503,7.318-16.239,10.118-5.735,2.8-17.089,4.519-23.712,3.685,14.008,2.861,29.158-.405,40.743-8.784,5.619-4.064,10.486-9.294,16.772-12.221-6.338,.749-12.179,3.775-17.563,7.202Z" id="elj6bummxb1i" class="animable" style="transform-origin: 194.913px 225.397px;"></path></g></g><g id="el72eootsyur4"><path d="M215.346,142.752s-1.465,3.89,6.393,6.883c7.858,2.993,11.426-1.499,17.803,0,6.377,1.499,4.947,0,4.947,0,0,0-2.105-5.064-10.874-3.782-8.768,1.282-18.269-3.101-18.269-3.101Z" style="opacity: 0.1; transform-origin: 229.932px 146.72px;" class="animable"></path></g><g id="ell3s4fevljpc"><path d="M212.033,346.497s5.842,6.863,16.487,6.634c10.645-.229,17.071-9.587,17.071-9.587,0,0-10.555,8.109-33.558,2.953Z" style="opacity: 0.1; transform-origin: 228.812px 348.34px;" class="animable"></path></g></g><g id="el507zcabboi3" class="animable" style="transform-origin: 315.2px 257.691px;"><path d="M261.57,118.92c34.227-7.403,52.226,13.212,52.226,13.212,11.711,0,13.611,9.478,13.611,9.478,19.308,8.329,19.308,26.999,19.308,26.999,0,0,10.762,11.776,14.56,21.542s0,13.212,0,13.212c0,0,13.407,3.626,7.153,24.057,0,0,16.678,10.424,9.59,53.371,0,0-1.251,12.509-8.756,18.346,0,0,5.837,14.177-7.505,25.435,0,0-11.704,45.449-41.085,53.371,0,0-2.279,15.011-26.045,18.346,0,0-30.855,6.671-37.526-5.837-6.671-12.509-5.42-67.642-5.42-67.642V125.265s4.101-5.093,9.891-6.345Z" style="fill: rgb(175, 126, 17); transform-origin: 315.68px 257.691px;" id="elgzjj2hx3ghu" class="animable"></path><g id="elz6uewqaab0a"><g style="opacity: 0.1; transform-origin: 311.642px 348.017px;" class="animable"><path d="M278.391,380.152c7.956-3.849,5.232-15.697,5.232-15.697,6.248,3.768,19.787,10.679,37.893-2.14,9.557-6.767,10.573-16.839,10.066-24.118,8.735,6.474,14.68,1.18,21.342-7.413,6.662-8.593,8.192-20.029,8.694-30.89,3.095,.162,6.208-.541,8.979-1.926-.422,.413-.867,.804-1.337,1.169,0,0,5.837,14.177-7.505,25.435,0,0-11.704,45.449-41.085,53.371,0,0-2.279,15.011-26.045,18.346,0,0-30.855,6.671-37.526-5.837-2.264-4.245-3.615-13.402-4.413-23.646,5.998,2.91,4.413,23.646,25.705,13.345Z" id="elaf6zdzp7kd" class="animable" style="transform-origin: 311.642px 348.017px;"></path></g></g><g id="ell037mjr6k1"><g style="opacity: 0.2; transform-origin: 358.037px 218.067px;" class="animable"><path d="M363.503,225.57c-.9,.301-1.841-.254-2.627-.784-2.832-1.91-5.664-3.821-8.496-5.731-.579-.391-1.225-.904-1.203-1.603,.015-.471,.34-.869,.659-1.217,2.025-2.21,4.459-4.044,7.142-5.381l.842-.375c2.058,.886,3.472,2.883,4.179,5.009s.802,4.4,.891,6.639c.053,1.332-.123,3.019-1.387,3.442Z" style="fill: rgb(255, 255, 255); transform-origin: 358.037px 218.067px;" id="elnhxp0tdhiw" class="animable"></path></g></g><g id="elr8y0nyag61c"><g style="opacity: 0.1; transform-origin: 272.811px 220.449px;" class="animable"><path d="M272.957,220.415c-.073,.016-.144,.038-.217,.055-.027,.005-.048,.008-.075,.013l.292-.068Z" style="fill: rgb(255, 255, 255); transform-origin: 272.811px 220.449px;" id="el6by01vn0lkp" class="animable"></path></g></g><g id="elq8az6nefhq"><g style="opacity: 0.1; transform-origin: 328.417px 149.788px;" class="animable"><path d="M328.515,149.821c-.05-.019-.1-.03-.149-.048-.016-.005-.032-.013-.048-.018l.197,.067Z" style="fill: rgb(255, 255, 255); transform-origin: 328.417px 149.788px;" id="el5csojzihxa8" class="animable"></path></g></g><g id="el029tg0a02n39"><g style="opacity: 0.3; transform-origin: 314.565px 179.931px;" class="animable"><path d="M377.451,242.543c-3.319-11.553-9.023-15.123-9.023-15.123,6.254-20.431-7.153-24.056-7.153-24.056,0,0,3.798-3.447,0-13.212s-14.56-21.542-14.56-21.542c0,0,0-18.669-19.308-26.999,0,0-1.899-9.478-13.611-9.478,0,0-17.999-20.615-52.226-13.212-5.79,1.252-9.891,6.345-9.891,6.345v.313c34.642-16.106,57.246,4.841,59.166,11.726,2.955-1.969,7.145-1.857,9.99,.266,2.846,2.123,4.145,6.109,3.099,9.502,5.883-.794,12.106,2.162,15.207,7.225,3.101,5.063,2.906,11.949-.475,16.829,7.901,.482,15.347,5.6,18.629,12.803,3.282,7.203,2.258,16.18-2.562,22.459,4.859-1.354,10.107,2.326,11.76,7.091,1.653,4.766,.394,10.113-1.947,14.581-.458,.874-.972,1.848-.699,2.796,.308,1.068,1.463,1.607,2.471,2.076,4.518,2.104,8.328,5.506,11.131,9.612Z" style="fill: rgb(255, 255, 255); transform-origin: 314.565px 179.931px;" id="ele9h5m5v6uep" class="animable"></path></g></g><g id="elmh1kebl3qwa"><g style="opacity: 0.2; transform-origin: 346.932px 191.62px;" class="animable"><path d="M355.099,187.109c-1.673-4.744-6.204-8.349-11.202-8.915l-1.48,.376c3.077,8.58,1.355,18.711-4.383,25.793,4.762,1.621,10.398,.293,13.935-3.284,3.538-3.577,4.803-9.226,3.13-13.971Z" style="fill: rgb(255, 255, 255); transform-origin: 346.932px 191.62px;" id="elv5b6okz2h3" class="animable"></path></g></g><g id="elkk70xdnbp3e"><g style="opacity: 0.2; transform-origin: 281.963px 138.602px;" class="animable"><path d="M306.535,143.894c-1.373-5.515-5.478-10.102-10.427-12.897-4.949-2.795-10.682-3.945-16.359-4.236-4.865-.249-9.901,.14-14.273,2.289-4.372,2.149-7.973,6.328-8.379,11.183h0c.668,3.336,3.77,5.599,7.153,5.24,5.166-.548,10.532,.262,15.655,1.391,7.092,1.564,14.162,3.723,21.425,3.642,1.598-.018,3.355-.216,4.456-1.375,1.268-1.336,1.193-3.45,.748-5.238Z" style="fill: rgb(255, 255, 255); transform-origin: 281.963px 138.602px;" id="elzjktqihsl8" class="animable"></path></g></g><g id="elcllfocwolms"><g style="opacity: 0.2; transform-origin: 285.36px 174.073px;" class="animable"><path d="M309.372,167.306c-.275-1.764-2.256-2.644-3.982-3.104-4.231-1.126-9.076-1.623-13.484-2.087-6.546-.901-14.506-.943-21.654,.172-2.231,.348-4.561,.89-6.209,2.434-1.984,1.861-2.551,4.772-2.686,7.489-.15,3.016,.118,6.128,1.418,8.854,1.299,2.726,3.765,5.018,6.742,5.525,3.531,.602,6.952-1.296,10.06-3.077,8.021-4.595,16.278-8.885,25.076-11.723,1.13-.365,2.294-.718,3.244-1.431s1.658-1.88,1.475-3.054Z" style="fill: rgb(255, 255, 255); transform-origin: 285.36px 174.073px;" id="elkvydlc9efh" class="animable"></path></g></g><g id="el2hhjs1dvrdx" class="animable" style="transform-origin: 310.324px 259.524px;"><path d="M250.628,309.473c6.512,8.475,18.096,12.703,28.42,10.032,5.114-1.285,9.808-3.903,14.238-6.877,4.456-2.962,8.749-6.259,13.391-9.147,9.298-5.723,19.686-9.668,30.434-11.476,5.314-1.084,11.812-.764,15.572,3.727,3.814,4.115,4.149,10.843,.79,15.276,2.876-4.521,2.352-10.878-1.505-14.605-3.776-4.041-9.512-3.978-14.578-2.862-10.487,2.084-20.593,6.021-29.663,11.641-4.549,2.782-8.837,6.065-13.406,9.025-4.56,2.93-9.476,5.637-14.92,6.812-10.764,2.514-22.771-2.375-28.774-11.546h0Z" style="fill: rgb(175, 126, 17); transform-origin: 303.206px 306.579px;" id="elthkuemiz6bf" class="animable"></path><path d="M320.037,313.714c6.427-1.438,12.162,4.824,12.647,10.952,.745,6.151-1.895,12.163-5.324,17.081,.961-2.832,2.006-5.596,2.691-8.404,2.313-8.147-.208-18.753-10.014-19.629h0Z" style="fill: rgb(175, 126, 17); transform-origin: 326.424px 327.626px;" id="elb0ze6xyrwq8" class="animable"></path><path d="M324.966,314.634c6.91,2.352,14.436,.068,18.894-5.707-1.963,7.808-12.936,11.113-18.894,5.707h0Z" style="fill: rgb(175, 126, 17); transform-origin: 334.413px 313.11px;" id="ellmalgk2qdw" class="animable"></path><path d="M283.354,319.062c-2.718,3.456-3.004,8.088-1.659,12.119,2.749,8.328,11.959,12.013,19.949,13.494,4.155,.698,8.841,.741,12.154-2.296-2.742,3.747-8.057,4.315-12.367,3.842-6.622-.777-13.618-3.184-18.073-8.47-4.385-5.08-5.33-13.979-.004-18.689h0Z" style="fill: rgb(175, 126, 17); transform-origin: 296.752px 332.713px;" id="elark4tssd9u" class="animable"></path><path d="M313.104,355.594c1.349-9.914,1.683-16.731-9.136-20.593,11.964,.342,14.001,11.502,9.136,20.593h0Z" style="fill: rgb(175, 126, 17); transform-origin: 309.762px 345.298px;" id="el6jqkkxua3cw" class="animable"></path><path d="M251.626,345.138c5.886,9.718,21.153,9.565,25.063,20.91-6.121-9.47-21.421-9.388-25.063-20.91h0Z" style="fill: rgb(175, 126, 17); transform-origin: 264.157px 355.593px;" id="eljpig3mbzh9n" class="animable"></path><path d="M368.077,273.429c-6.042-.225-9.794,4.491-14.966,6.914-5.254,2.44-11.629,2.818-16.935,.47,2.826,.358,5.603,.374,8.312,.002,2.702-.386,5.336-1.123,7.773-2.282,4.749-2.223,10.064-7.094,15.815-5.105h0Z" style="fill: rgb(175, 126, 17); transform-origin: 352.126px 277.674px;" id="elmhi0pubwnrl" class="animable"></path><path d="M353.593,269.195c-17.75-4.621-37.169-2.129-52.954,7.124-7.906,4.533-15.126,11.695-24.795,12.437-9.762,.82-17.899-6.635-22.667-14.394,4.123,5.419,9.311,10.399,15.94,12.3,11.823,3.241,21.059-6.55,30.512-12.067,16.09-9.416,36.409-11.638,53.964-5.4h0Z" style="fill: rgb(175, 126, 17); transform-origin: 303.385px 277.249px;" id="elh6lubfun3sg" class="animable"></path><path d="M251.841,230.542c9.304-8.109,23.481,2.402,32.687-6.066,6.394-5.324,10.718-14.807,19.611-17.152,2.863-.898,5.767-1.338,8.557-1.937,5.56-1.063,10.79-3.52,15.024-7.224,8.602-7.231,12.135-20.397,6.768-30.568-2.574-5.048-7.129-9.161-12.643-10.989,5.663,1.395,10.54,5.43,13.503,10.519,6.139,10.515,2.656,24.689-6.374,32.457-4.448,3.983-10.062,6.62-15.865,7.761-4.233,.898-8.454,1.343-12.194,3.443-6.313,3.62-9.665,10.493-15.424,14.911-10.377,8.849-23.529-2.64-33.649,4.845h0Z" style="fill: rgb(175, 126, 17); transform-origin: 295.137px 193.574px;" id="elrl8dgns5rx" class="animable"></path><path d="M322.218,168.449c-3.582,4.252-5.824,9.084-6.79,14.558-2.005-5.525,1.275-12.536,6.79-14.558h0Z" style="fill: rgb(175, 126, 17); transform-origin: 318.526px 175.728px;" id="el42dgopffgyt" class="animable"></path><path d="M323.458,184.823c-12.135-2.672-24.197,1.006-35.51,5.258-8.52,3.223-18.528,6.408-27.246,2.022-2.792-1.411-5.298-3.554-6.671-6.328,1.76,2.527,4.279,4.374,7.071,5.433,11.899,4.67,23.589-2.878,34.931-5.932,8.843-2.503,18.62-3.675,27.425-.453h0Z" style="fill: rgb(175, 126, 17); transform-origin: 288.744px 188.555px;" id="elij8tlogw5ij" class="animable"></path><path d="M251.841,158.959c12.298-10.698,32.527-11.235,45.363-1.181-14.147-7.317-31.618-6.872-45.363,1.181h0Z" style="fill: rgb(175, 126, 17); transform-origin: 274.523px 154.766px;" id="elvp06xse9nw" class="animable"></path><path d="M327.436,206.238c22.414,8.691,38.192,32.121,37.791,56.161-2.644-23.746-16.783-44.776-37.791-56.161h0Z" style="fill: rgb(175, 126, 17); transform-origin: 346.335px 234.319px;" id="el06pch711v8ms" class="animable"></path><path d="M370.021,297.011c-4.64,5.886-14.879,5.823-19.433-.136,6.128,3.28,13.262,3.34,19.433,.136h0Z" style="fill: rgb(175, 126, 17); transform-origin: 360.304px 299.13px;" id="el0eehfgqgns" class="animable"></path><path d="M291.602,280.101c-5.283-5.876-6.856-14.164-7.179-21.855-.983-20.898,15.083-25.622,32.824-24.596,7.781,.592,15.446,2.95,22.17,6.865-7.054-3.198-14.642-4.989-22.264-5.307-10.434-.15-24.655,1.037-29.247,12.013-1.461,3.396-1.881,7.217-1.929,11.006,.051,7.581,1.04,15.562,5.624,21.875h0Z" style="fill: rgb(175, 126, 17); transform-origin: 311.899px 256.811px;" id="el81fmpx4pg0r" class="animable"></path><path d="M314.246,268.668c-.771-3.761-.892-7.715,.524-11.383,1.389-3.584,5.019-7.001,9.049-6.496-7.634,2.512-8.313,11.113-9.573,17.879h0Z" style="fill: rgb(175, 126, 17); transform-origin: 318.75px 259.704px;" id="elex3skdro8du" class="animable"></path><path d="M300.656,210.479c4.063,6.941,12.341,9.209,19.922,8.81,2.59-.086,5.203-.383,7.868-.608-4.976,2.059-10.509,3.077-15.89,2.021-5.278-1.074-10.666-4.777-11.9-10.223h0Z" style="fill: rgb(175, 126, 17); transform-origin: 314.551px 215.802px;" id="elqoz3vdbkntm" class="animable"></path><path d="M326.724,140.639c2.544,9.102-3.757,19.688-12.98,21.772,1.919-1.261,3.664-2.626,5.215-4.167,4.771-4.661,7.29-10.97,7.764-17.604h0Z" style="fill: rgb(175, 126, 17); transform-origin: 320.518px 151.525px;" id="elt7d2trbv4cl" class="animable"></path><path d="M321.516,377.364c-12.651,3.137-27.084-.936-36.213-10.244,10.805,6.942,23.371,10.508,36.213,10.244h0Z" style="fill: rgb(175, 126, 17); transform-origin: 303.409px 372.764px;" id="elxbn8oh45kw9" class="animable"></path></g><g id="ela0pl50m0bq"><g style="opacity: 0.2; transform-origin: 284.916px 206.507px;" class="animable"><path d="M263.048,200.73c-2.53,3.828-3.413,11.616-.578,15.224,2.835,3.608,8.068,5.113,12.386,3.561,3.845-1.382,6.571-4.725,9.542-7.53,4.919-4.645,10.969-8.084,17.476-9.935,1.809-.515,3.707-.934,5.22-2.052s2.525-3.188,1.775-4.913c-1.074-2.467-4.551-2.459-7.176-1.867-6.417,1.448-12.54,3.952-18.825,5.891s-12.905,3.323-19.423,2.436" style="fill: rgb(255, 255, 255); transform-origin: 284.916px 206.507px;" id="elq756fmq1a8p" class="animable"></path></g></g><g id="elhqrazs1aqcq"><g style="opacity: 0.2; transform-origin: 306.859px 254.215px;" class="animable"><path d="M320.568,243.185c-.159-.789-2.037-1.718-3.845-2.251l.748,.143c-.515-.145-1.037-.257-1.561-.355-.518-.118-1.007-.197-1.418-.216l.105,.02c-5.488-.625-11.249,1.165-15.32,4.917-4.791,4.415-7.078,11.383-5.836,17.778,.264,1.36,.719,2.762,1.747,3.692,1.275,1.153,3.203,1.334,4.864,.889,4.257-1.139,6.685-5.526,8.409-9.582,1.724-4.056,3.535-8.553,7.452-10.571,1.038-.534,2.184-.865,3.147-1.525,.963-.66,1.74-1.795,1.509-2.939Z" style="fill: rgb(255, 255, 255); transform-origin: 306.859px 254.215px;" id="elh84tm69yah5" class="animable"></path></g></g><g id="elythmuoes5"><g style="opacity: 0.2; transform-origin: 341.797px 236.304px;" class="animable"><path d="M350.852,235.505c-2.667-4.002-6.446-7.128-10.348-9.939-1.495-1.077-3.144-2.159-4.986-2.158-1.843,.001-6.526,2.646-6.151,4.45,9.948,4.641,18.548,12.128,24.515,21.342,1.095-4.683-.363-9.694-3.03-13.695Z" style="fill: rgb(255, 255, 255); transform-origin: 341.797px 236.304px;" id="elbn2gql8nfgq" class="animable"></path></g></g><g id="el31w2yw6b35a"><g style="opacity: 0.2; transform-origin: 335.425px 254.308px;" class="animable"><path d="M340.886,252.126c-1.25-1.324-2.64-2.332-4.173-2.984-2.604-1.108-5.562-.181-7.008,2.252-.205,.345-.388,.702-.544,1.075-.677,1.618-.761,3.571,.163,5.061,.827,1.334,2.356,2.124,3.911,2.338,1.554,.213,3.137-.09,4.636-.554,2.337-.724,4.929-2.339,4.218-5.14-.197-.778-.652-1.465-1.203-2.048Z" style="fill: rgb(255, 255, 255); transform-origin: 335.425px 254.308px;" id="elta3j4frz2k" class="animable"></path></g></g><g id="elc49zmuezsi"><g style="opacity: 0.2; transform-origin: 268.419px 241.884px;" class="animable"><path d="M276.275,235.429c-4.204-1.23-9.191-.385-13.542,.122-1.717,.201-3.665,.717-4.401,2.282-.481,1.023-.286,2.267,.264,3.255s1.415,1.76,2.306,2.456c3.061,2.395,6.634,4.132,10.408,5.061,1.97,.485,4.267,.681,5.827-.617,1.874-1.558,1.763-4.415,1.489-6.836-.239-2.115-.622-4.484-2.352-5.724" style="fill: rgb(255, 255, 255); transform-origin: 268.419px 241.884px;" id="elz2sryw498rh" class="animable"></path></g></g><g id="ela9lwnau5qba"><g style="opacity: 0.3; transform-origin: 311.093px 259.524px;" class="animable"><path d="M250.628,309.473c6.512,8.475,18.096,12.703,28.42,10.032,5.114-1.285,9.808-3.903,14.238-6.877,4.456-2.962,8.749-6.259,13.391-9.147,9.298-5.723,19.686-9.668,30.434-11.476,5.314-1.084,11.812-.764,15.572,3.727,3.814,4.115,4.149,10.843,.79,15.276,2.876-4.521,2.352-10.878-1.505-14.605-3.776-4.041-9.512-3.978-14.578-2.862-10.487,2.084-20.593,6.021-29.663,11.641-4.549,2.782-8.837,6.065-13.406,9.025-4.56,2.93-9.476,5.637-14.92,6.812-10.764,2.514-22.771-2.375-28.774-11.546h0Z" id="el05voxmi6vqai" class="animable" style="transform-origin: 303.206px 306.579px;"></path><path d="M320.037,313.714c6.427-1.438,12.162,4.824,12.647,10.952,.745,6.151-1.895,12.163-5.324,17.081,.961-2.832,2.006-5.596,2.691-8.404,2.313-8.147-.208-18.753-10.014-19.629h0Z" id="el5e0up2bjxk7" class="animable" style="transform-origin: 326.424px 327.626px;"></path><path d="M324.966,314.634c6.91,2.352,14.436,.068,18.894-5.707-1.963,7.808-12.936,11.113-18.894,5.707h0Z" id="ellc2k068csv" class="animable" style="transform-origin: 334.413px 313.11px;"></path><path d="M283.354,319.062c-2.718,3.456-3.004,8.088-1.659,12.119,2.749,8.328,11.959,12.013,19.949,13.494,4.155,.698,8.841,.741,12.154-2.296-2.742,3.747-8.057,4.315-12.367,3.842-6.622-.777-13.618-3.184-18.073-8.47-4.385-5.08-5.33-13.979-.004-18.689h0Z" id="elymnqki7hn9n" class="animable" style="transform-origin: 296.752px 332.713px;"></path><path d="M313.104,355.594c1.349-9.914,1.683-16.731-9.136-20.593,11.964,.342,14.001,11.502,9.136,20.593h0Z" id="elp8pdn72add8" class="animable" style="transform-origin: 309.762px 345.298px;"></path><path d="M251.626,345.138c5.886,9.718,21.153,9.565,25.063,20.91-6.121-9.47-21.421-9.388-25.063-20.91h0Z" id="elbgg0aq4inv6" class="animable" style="transform-origin: 264.157px 355.593px;"></path><path d="M368.077,273.429c-6.042-.225-9.794,4.491-14.966,6.914-5.254,2.44-11.629,2.818-16.935,.47,2.826,.358,5.603,.374,8.312,.002,2.702-.386,5.336-1.123,7.773-2.282,4.749-2.223,10.064-7.094,15.815-5.105h0Z" id="elue4xz68gnp" class="animable" style="transform-origin: 352.126px 277.674px;"></path><path d="M353.593,269.195c-17.75-4.621-37.169-2.129-52.954,7.124-7.906,4.533-15.126,11.695-24.795,12.437-9.762,.82-17.899-6.635-22.667-14.394,4.123,5.419,9.311,10.399,15.94,12.3,11.823,3.241,21.059-6.55,30.512-12.067,16.09-9.416,36.409-11.638,53.964-5.4h0Z" id="el1c2xzdh1z4w" class="animable" style="transform-origin: 303.385px 277.249px;"></path><path d="M251.841,230.542c9.304-8.109,23.481,2.402,32.687-6.066,6.394-5.324,10.718-14.807,19.611-17.152,2.863-.898,5.767-1.338,8.557-1.937,5.56-1.063,10.79-3.52,15.024-7.224,8.602-7.231,12.135-20.397,6.768-30.568-2.574-5.048-7.129-9.161-12.643-10.989,5.663,1.395,10.54,5.43,13.503,10.519,6.139,10.515,2.656,24.689-6.374,32.457-4.448,3.983-10.062,6.62-15.865,7.761-4.233,.898-8.454,1.343-12.194,3.443-6.313,3.62-9.665,10.493-15.424,14.911-10.377,8.849-23.529-2.64-33.649,4.845h0Z" id="elr77symalk9b" class="animable" style="transform-origin: 295.137px 193.574px;"></path><path d="M322.218,168.449c-3.582,4.252-5.824,9.084-6.79,14.558-2.005-5.525,1.275-12.536,6.79-14.558h0Z" id="elen24cb94dgd" class="animable" style="transform-origin: 318.526px 175.728px;"></path><path d="M323.458,184.823c-12.135-2.672-24.197,1.006-35.51,5.258-8.52,3.223-18.528,6.408-27.246,2.022-2.792-1.411-5.298-3.554-6.671-6.328,1.76,2.527,4.279,4.374,7.071,5.433,11.899,4.67,23.589-2.878,34.931-5.932,8.843-2.503,18.62-3.675,27.425-.453h0Z" id="elxgjoz2lx0os" class="animable" style="transform-origin: 288.744px 188.555px;"></path><path d="M251.841,158.959c12.298-10.698,32.527-11.235,45.363-1.181-14.147-7.317-31.618-6.872-45.363,1.181h0Z" id="elcxrp75ic9rt" class="animable" style="transform-origin: 274.523px 154.766px;"></path><path d="M327.436,206.238c22.414,8.691,38.192,32.121,37.791,56.161-2.644-23.746-16.783-44.776-37.791-56.161h0Z" id="elcmobldb2dv8" class="animable" style="transform-origin: 346.335px 234.319px;"></path><path d="M371.56,296.335c-4.64,5.886-14.88,5.823-19.433-.136,6.128,3.28,13.262,3.34,19.433,.136h0Z" id="elia8egq0c4xp" class="animable" style="transform-origin: 361.843px 298.454px;"></path><path d="M291.602,280.101c-5.283-5.876-6.856-14.164-7.179-21.855-.983-20.898,15.083-25.622,32.824-24.596,7.781,.592,15.446,2.95,22.17,6.865-7.054-3.198-14.642-4.989-22.264-5.307-10.434-.15-24.655,1.037-29.247,12.013-1.461,3.396-1.881,7.217-1.929,11.006,.051,7.581,1.04,15.562,5.624,21.875h0Z" id="elewe5stnv16u" class="animable" style="transform-origin: 311.899px 256.811px;"></path><path d="M314.246,268.668c-.771-3.761-.892-7.715,.524-11.383,1.389-3.584,5.019-7.001,9.049-6.496-7.634,2.512-8.313,11.113-9.573,17.879h0Z" id="elfh6bcdl0n66" class="animable" style="transform-origin: 318.75px 259.704px;"></path><path d="M300.656,210.479c4.063,6.941,12.341,9.209,19.922,8.81,2.59-.086,5.203-.383,7.868-.608-4.976,2.059-10.509,3.077-15.89,2.021-5.278-1.074-10.666-4.777-11.9-10.223h0Z" id="elloc8yvmen6g" class="animable" style="transform-origin: 314.551px 215.802px;"></path><path d="M326.724,140.639c2.544,9.102-3.757,19.688-12.98,21.772,1.919-1.261,3.664-2.626,5.215-4.167,4.771-4.661,7.29-10.97,7.764-17.604h0Z" id="el6wpeakrbazj" class="animable" style="transform-origin: 320.518px 151.525px;"></path><path d="M321.516,377.364c-12.651,3.137-27.084-.936-36.213-10.244,10.805,6.942,23.371,10.508,36.213,10.244h0Z" id="eldswo3msjd0r" class="animable" style="transform-origin: 303.409px 372.764px;"></path></g></g><g id="elfyit80tu4yj"><g style="opacity: 0.1; transform-origin: 301.405px 309.068px;" class="animable"><path d="M306.038,305.243c-6.047,3.697-11.772,7.957-18.133,11.083-6.361,3.126-13.584,5.087-20.551,3.783l-5.515-1.401c6.131,4.356,13.618,7.036,21.127,6.611,7.462-.423,14.461-3.828,20.626-8.054,6.165-4.226,11.699-9.307,17.759-13.682,6.06-4.376,12.209-9.786,19.62-10.756-12.556-.714-24.203,5.856-34.933,12.416Z" id="el2rd9g7p23rv" class="animable" style="transform-origin: 301.405px 309.068px;"></path></g></g><g id="elftauz8sqfo9"><g style="opacity: 0.1; transform-origin: 285.535px 263.128px;" class="animable"><path d="M286.546,246.156c-5.028,4.701-7.684,11.823-6.961,18.668,.723,6.846,6.117,11.729,12.017,15.276-6.409-10.78-7.008-22.28-5.056-33.945" id="el4oxosg53fx9" class="animable" style="transform-origin: 285.535px 263.128px;"></path></g></g><g id="ele497z2fl4c"><g style="opacity: 0.1; transform-origin: 298.454px 220.291px;" class="animable"><path d="M309.07,218.573c-3.486-2.215-7.407-4.088-8.414-8.093-4.421,2.991-6.267,5.726-9.821,9.708-3.554,3.983-7.896,7.73-13.178,8.501l-1.705,.007c4.309,2.532,10.012,1.399,14.117-1.452,4.105-2.851,6.961-7.123,9.718-11.292,1.967,3.583,5.511,6.263,9.494,7.179s8.342,.053,11.676-2.311c-4.054,.79-8.4-.032-11.886-2.247Z" id="elq9q6e9hcjb" class="animable" style="transform-origin: 298.454px 220.291px;"></path></g></g><g id="elemkf1gz25so"><g style="opacity: 0.1; transform-origin: 302.074px 179.337px;" class="animable"><path d="M310.321,181.038c-9.373-.074-18.738,3.174-26.053,9.035l.828,.165c9.144-4.771,19.51-7.177,29.821-6.919-.075-5.329,1.705-10.666,4.964-14.883-5.011,2.261-8.733,7.168-9.559,12.602Z" id="elnucwzevhec" class="animable" style="transform-origin: 302.074px 179.337px;"></path></g></g></g></g></g><g id="freepik--Pencil--inject-3" class="animable" style="transform-origin: 389.572px 367.121px;"><g id="elj5dojkx757" class="animable" style="transform-origin: 389.572px 367.121px;"><g id="elzb9i0hehpmc" class="animable" style="transform-origin: 346.503px 446.168px;"><path d="M337.36,440.889c3.189-5.523,9.867-7.637,14.916-4.721,5.05,2.915,6.558,9.756,3.37,15.279-3.189,5.523-9.867,7.637-14.916,4.721-5.05-2.915-6.558-9.756-3.369-15.279Z" style="fill: rgb(175, 126, 17); transform-origin: 346.503px 446.168px;" id="el1u8bb613efw" class="animable"></path></g><polygon points="424.726 289.52 443.456 276.763 442.999 300.07 356.02 450.722 337.747 440.172 424.726 289.52" style="fill: rgb(175, 126, 17); transform-origin: 390.602px 363.742px;" id="el7w9p330zspu" class="animable"></polygon><path d="M443.344,282.918c-2.292,.242-3.909-.675-4.845-2.781l-13.773,9.384s-.661,4.785,4.364,2.866c0,0,.249,4.903,5.21,3.008,0,0,.594,4.133,4.545,2.624,0,0,.647,3.39,4.153,2.051l.345-17.152Z" style="fill: rgb(185, 121, 100); transform-origin: 434.021px 290.26px;" id="elmc7mvgnc26r" class="animable"></path><g id="ellsjrfzwply"><path d="M434.352,295.451l-85.891,151.182,4.254,2.456c.784,.204,86.182-151.014,86.182-151.014-3.951,1.509-4.545-2.624-4.545-2.624Z" style="fill: rgb(255, 255, 255); opacity: 0.1; transform-origin: 393.679px 372.27px;" class="animable"></path></g><g id="elv2okdnhjthk"><path d="M429.074,292.447c-2.771,1.058-3.811,.078-4.188-1.015l-85.291,150.125,4.254,2.456c.747,.194,78.2-136.883,85.613-150.005-.348-.804-.387-1.561-.387-1.561Z" style="fill: rgb(255, 255, 255); opacity: 0.1; transform-origin: 384.529px 367.723px;" class="animable"></path></g><g id="elwp5qf8ui04"><rect x="335.539" y="444.198" width="22.348" height="3.395" style="fill: rgb(38, 50, 56); transform-origin: 346.713px 445.895px; transform: rotate(-150deg);" class="animable"></rect></g></g></g><g id="freepik--Light_Bulb--inject-3" class="animable" style="transform-origin: 401.965px 128.976px;"><g id="elgb2dsc89wic" class="animable" style="transform-origin: 401.965px 128.976px;"><g id="elv9ja2xd018a" class="animable" style="transform-origin: 400.084px 137.902px;"><g id="el2i7tmc2mz5s" class="animable" style="transform-origin: 402.486px 130.993px;"><g id="el7586sls8lih" class="animable" style="transform-origin: 402.486px 130.993px;"><path d="M416.937,94.843c-17.466-7.983-38.096-.296-46.079,17.17-4.332,9.478-4.185,20.399,.401,29.757,.853,1.702,2.31,3.951,1.034,6.708-.039,.084-2.936,7.01-2.936,7.01l33.439,14.811s3.3-7.068,3.336-7.149c1.083-2.445,3.443-2.661,5.325-3.146,10.023-2.654,18.333-9.655,22.649-19.083,7.983-17.466,.296-38.096-17.17-46.079Z" style="fill: rgb(175, 126, 17); transform-origin: 402.486px 130.993px;" id="elq1fo72f6tph" class="animable"></path><g id="elx560ymn66b"><path d="M416.937,94.843c-17.466-7.983-38.096-.296-46.079,17.17-4.332,9.478-4.185,20.399,.401,29.757,.853,1.702,2.31,3.951,1.034,6.708-.039,.084-2.936,7.01-2.936,7.01l33.439,14.811s3.3-7.068,3.336-7.149c1.083-2.445,3.443-2.661,5.325-3.146,10.023-2.654,18.333-9.655,22.649-19.083,7.983-17.466,.296-38.096-17.17-46.079Z" style="fill: rgb(255, 255, 255); opacity: 0.1; transform-origin: 402.486px 130.993px;" class="animable"></path></g></g><path d="M372.657,127.852c-.676-6.06,.746-12.236,4.003-17.39,3.256-5.155,8.224-9.09,13.986-11.082l.164,.473c-5.656,1.955-10.532,5.817-13.729,10.876-3.195,5.059-4.591,11.121-3.929,17.068l-.496,.056Z" style="fill: rgb(255, 255, 255); transform-origin: 381.651px 113.616px;" id="ell6ebkkzec0d" class="animable"></path><path d="M399.608,160.352l-.998-.054c.271-5.022,.875-10.048,1.802-15.037-2.294,.736-4.439,.682-6.143-.174-1.386-.697-2.537-1.927-3.487-3.734-2.151,4.29-4.803,8.32-7.896,11.971l-.764-.646c3.211-3.79,5.938-7.995,8.113-12.478-.14-.328-.274-.67-.404-1.029-1.91-5.262-1.543-10.567,.981-14.192,.948-1.361,2.505-2.451,3.842-1.818,1.221,.578,1.589,2.207,1.039,4.587-.996,4.306-2.464,8.493-4.356,12.47,.914,1.989,2.027,3.296,3.381,3.977,2.036,1.023,4.387,.499,5.909-.067,.739-3.774,1.663-7.525,2.77-11.234,.398-1.333,.823-2.62,1.627-3.692,.979-1.308,2.398-1.988,3.617-1.733,2.121,.444,2.762,3.206,2.299,5.705-.927,5.005-4.571,9.565-9.284,11.619-.051,.021-.101,.043-.15,.064-.981,5.139-1.617,10.321-1.897,15.497Zm8.503-31.939c-.859,0-1.743,.662-2.286,1.387-.706,.942-1.098,2.136-1.469,3.379-1.032,3.459-1.904,6.955-2.614,10.471,4.122-2,7.393-6.219,8.216-10.661,.37-1.999-.098-4.245-1.521-4.543-.107-.022-.216-.033-.325-.033Zm-14.284-4.435c-.723,0-1.603,.724-2.193,1.572-2.339,3.359-2.661,8.323-.862,13.28,.017,.044,.032,.088,.049,.132,1.677-3.664,2.988-7.502,3.899-11.44,.158-.682,.588-2.946-.492-3.457-.125-.06-.26-.087-.4-.087Z" style="fill: rgb(38, 50, 56); transform-origin: 396.602px 141.665px;" id="eliq0ceux93yc" class="animable"></path></g><g id="el87957p99tld"><rect x="363.787" y="160.725" width="44.754" height="4.414" rx="1.604" ry="1.604" style="fill: rgb(38, 50, 56); transform-origin: 386.164px 162.932px; transform: rotate(23.89deg);" class="animable"></rect></g><g id="elwapzgczbdro"><rect x="363.787" y="160.725" width="44.754" height="4.414" rx="1.604" ry="1.604" style="fill: rgb(255, 255, 255); opacity: 0.1; transform-origin: 386.164px 162.932px; transform: rotate(23.89deg);" class="animable"></rect></g><g id="elln40axwkmx"><rect x="362.915" y="164.404" width="43.303" height="4.271" rx="1.604" ry="1.604" style="fill: rgb(38, 50, 56); transform-origin: 384.567px 166.54px; transform: rotate(23.89deg);" class="animable"></rect></g><g id="eltv4pa384t4"><rect x="362.915" y="164.404" width="43.303" height="4.271" rx="1.604" ry="1.604" style="fill: rgb(255, 255, 255); opacity: 0.1; transform-origin: 384.567px 166.54px; transform: rotate(23.89deg);" class="animable"></rect></g><path d="M368.677,168.499c.477,5.699,3.612,12.87,8.969,14.874,5.356,2.004,12.218-.262,16.318-4.249l-25.287-10.626Z" style="fill: rgb(38, 50, 56); transform-origin: 381.32px 176.307px;" id="elkp1d0lt455s" class="animable"></path><g id="elkcletms45g"><rect x="362.44" y="171.445" width="38.016" height="4.271" rx="1.604" ry="1.604" style="fill: rgb(38, 50, 56); transform-origin: 381.448px 173.581px; transform: rotate(23.89deg);" class="animable"></rect></g><g id="eljujxlf1gl4"><rect x="362.44" y="171.445" width="38.016" height="4.271" rx="1.604" ry="1.604" style="fill: rgb(255, 255, 255); opacity: 0.1; transform-origin: 381.448px 173.581px; transform: rotate(23.89deg);" class="animable"></rect></g><g id="elmjfafieei6"><rect x="361.967" y="167.863" width="42.134" height="4.271" rx="1.604" ry="1.604" style="fill: rgb(38, 50, 56); transform-origin: 383.034px 169.999px; transform: rotate(23.89deg);" class="animable"></rect></g><g id="el1br0fcad0ddg"><rect x="361.967" y="167.863" width="42.134" height="4.271" rx="1.604" ry="1.604" style="fill: rgb(255, 255, 255); opacity: 0.1; transform-origin: 383.034px 169.999px; transform: rotate(23.89deg);" class="animable"></rect></g></g><path d="M404.056,75.285c1.346,3.487,2.692,6.974,4.038,10.46,.172,.446,.897,.252,.723-.199-1.346-3.487-2.692-6.974-4.038-10.46-.172-.446-.897-.252-.723,.199h0Z" style="fill: rgb(38, 50, 56); transform-origin: 406.436px 80.4155px;" id="els222ikxudm" class="animable"></path><path d="M420.924,88.126c2.025-4.572,4.05-9.143,6.075-13.715,.194-.437-.452-.819-.648-.379-2.025,4.572-4.05,9.143-6.075,13.715-.194,.437,.452,.819,.648,.379h0Z" style="fill: rgb(38, 50, 56); transform-origin: 423.638px 81.079px;" id="el7b0h92auqtk" class="animable"></path><path d="M429.462,95.971c3.769-1.455,7.539-2.911,11.308-4.366,.446-.172,.252-.897-.199-.723-3.77,1.455-7.539,2.91-11.308,4.366-.446,.172-.252,.897,.199,.723h0Z" style="fill: rgb(38, 50, 56); transform-origin: 435.017px 93.4265px;" id="elugrzfbkszy" class="animable"></path></g></g><g id="freepik--Pen--inject-3" class="animable" style="transform-origin: 251.586px 80.137px;"><g id="elaoqyx9x0599" class="animable" style="transform-origin: 251.586px 80.137px;"><polygon points="269.761 72.26 270.569 94.465 247.942 106.34 229.78 92.391 228.36 49.506 236.15 45.581 269.761 72.26" style="fill: rgb(38, 50, 56); transform-origin: 249.465px 75.9605px;" id="elfk8y4nza1eo" class="animable"></polygon><polygon points="274.812 102.808 252.177 114.693 247.93 106.25 270.557 94.374 274.812 102.808" style="fill: rgb(38, 50, 56); transform-origin: 261.371px 104.534px;" id="el897kgrcf3uj" class="animable"></polygon><g id="elfolc4ljf98"><polygon points="269.761 72.26 270.569 94.465 247.942 106.34 229.78 92.391 228.36 49.506 236.15 45.581 269.761 72.26" style="fill: rgb(255, 255, 255); opacity: 0.3; transform-origin: 249.465px 75.9605px;" class="animable"></polygon></g><g id="elw4bsrx9xlfc"><rect x="241.199" y="45.186" width="1.845" height="44.545" style="fill: rgb(38, 50, 56); transform-origin: 242.122px 67.4585px; transform: rotate(-26.725deg);" class="animable"></rect></g><path d="M254.423,82.69c1.046,2.082,.206,4.617-1.876,5.663-2.082,1.046-4.617,.206-5.663-1.876-1.046-2.082-.206-4.617,1.876-5.663l.007-.004c2.081-1.041,4.611-.2,5.656,1.879Z" style="fill: rgb(38, 50, 56); transform-origin: 250.654px 84.5832px;" id="elmh3foywd2v" class="animable"></path></g></g><g id="freepik--Atom--inject-3" class="animable" style="transform-origin: 117.254px 113.395px;"><g id="elqn6377akv2b" class="animable" style="transform-origin: 117.254px 113.395px;"><g id="el2f1av34iul4"><rect x="119.22" y="73.906" width=".75" height="30.489" style="fill: rgb(38, 50, 56); transform-origin: 119.595px 89.1505px; transform: rotate(-8.229deg);" class="animable"></rect></g><g id="elymyv76ry3od"><rect x="125.436" y="96.73" width="29.827" height=".75" style="fill: rgb(38, 50, 56); transform-origin: 140.35px 97.105px; transform: rotate(-31.309deg);" class="animable"></rect></g><g id="el6qgzzgs3hle"><rect x="139.534" y="114.395" width=".75" height="16.777" style="fill: rgb(38, 50, 56); transform-origin: 139.909px 122.784px; transform: rotate(-62.586deg);" class="animable"></rect></g><path d="M152.698,120.498c3.881,2.013,5.396,6.791,3.382,10.673-2.013,3.881-6.791,5.396-10.672,3.382-3.881-2.013-5.396-6.791-3.382-10.673,2.013-3.881,6.791-5.396,10.673-3.382Z" style="fill: rgb(175, 126, 17); transform-origin: 149.053px 127.526px;" id="eli5pu868631" class="animable"></path><g id="eldfht8iio6q9"><path d="M152.698,120.498c3.881,2.013,5.396,6.791,3.382,10.673-2.013,3.881-6.791,5.396-10.672,3.382-3.881-2.013-5.396-6.791-3.382-10.673,2.013-3.881,6.791-5.396,10.673-3.382Z" style="opacity: 0.3; transform-origin: 149.053px 127.526px;" class="animable"></path></g><path d="M159.605,81.163c4.936,2.56,6.862,8.637,4.302,13.573-2.56,4.936-8.637,6.862-13.574,4.302-4.936-2.56-6.862-8.637-4.302-13.574s8.637-6.862,13.574-4.302Z" style="fill: rgb(175, 126, 17); transform-origin: 154.969px 90.0999px;" id="el1burcdggg18" class="animable"></path><path d="M119.72,69.68c2.715,1.408,3.775,4.751,2.366,7.467-1.408,2.715-4.751,3.775-7.467,2.367-2.715-1.408-3.775-4.751-2.366-7.467,1.408-2.715,4.751-3.775,7.467-2.366Z" style="fill: rgb(175, 126, 17); transform-origin: 117.169px 74.5972px;" id="elpdp85qg8bmp" class="animable"></path><g id="elhrciaz4erio"><path d="M119.72,69.68c2.715,1.408,3.775,4.751,2.366,7.467-1.408,2.715-4.751,3.775-7.467,2.367-2.715-1.408-3.775-4.751-2.366-7.467,1.408-2.715,4.751-3.775,7.467-2.366Z" style="opacity: 0.3; transform-origin: 117.169px 74.5972px;" class="animable"></path></g><g id="elzbcqm1n6ae"><rect x="122.253" y="115.558" width=".75" height="30.052" style="fill: rgb(38, 50, 56); transform-origin: 122.628px 130.584px; transform: rotate(-10.149deg);" class="animable"></rect></g><polygon points="85.675 129.497 85.311 128.841 116.982 111.247 86.286 99.176 86.56 98.478 118.736 111.13 85.675 129.497" style="fill: rgb(38, 50, 56); transform-origin: 102.023px 113.987px;" id="elxvcgg09hzo" class="animable"></polygon><path d="M89.205,93.463c2.962,1.536,4.118,5.183,2.582,8.145-1.536,2.962-5.183,4.118-8.145,2.582-2.962-1.536-4.118-5.183-2.582-8.145,1.536-2.962,5.183-4.118,8.145-2.582Z" style="fill: rgb(175, 126, 17); transform-origin: 86.4235px 98.8265px;" id="elq39horc0zup" class="animable"></path><path d="M127.548,140.995c4.346,2.255,6.042,7.605,3.788,11.952-2.254,4.346-7.605,6.042-11.952,3.788-4.346-2.254-6.042-7.605-3.788-11.952s7.605-6.042,11.952-3.788Z" style="fill: rgb(175, 126, 17); transform-origin: 123.466px 148.865px;" id="ele5c2cfoerp" class="animable"></path><path d="M87.119,120.925c5.924,3.073,8.236,10.366,5.163,16.291-3.073,5.924-10.367,8.236-16.291,5.163-5.924-3.073-8.236-10.367-5.163-16.291,3.073-5.924,10.367-8.236,16.291-5.163Z" style="fill: rgb(175, 126, 17); transform-origin: 81.555px 131.652px;" id="el2zeeqvb3ydv" class="animable"></path><g id="el7addd8j48yf"><circle cx="119.815" cy="110.34" r="17.605" style="fill: rgb(175, 126, 17); transform-origin: 119.815px 110.34px; transform: rotate(-17.738deg);" class="animable"></circle></g><g id="elnxhgd7h2ooi"><circle cx="119.815" cy="110.34" r="17.605" style="fill: rgb(255, 255, 255); opacity: 0.1; transform-origin: 119.815px 110.34px; transform: rotate(-17.738deg);" class="animable"></circle></g></g></g><defs>     <filter id="active" height="200%">         <feMorphology in="SourceAlpha" result="DILATED" operator="dilate" radius="2"></feMorphology>                <feFlood flood-color="#32DFEC" flood-opacity="1" result="PINK"></feFlood>        <feComposite in="PINK" in2="DILATED" operator="in" result="OUTLINE"></feComposite>        <feMerge>            <feMergeNode in="OUTLINE"></feMergeNode>            <feMergeNode in="SourceGraphic"></feMergeNode>        </feMerge>    </filter>    <filter id="hover" height="200%">        <feMorphology in="SourceAlpha" result="DILATED" operator="dilate" radius="2"></feMorphology>                <feFlood flood-color="#ff0000" flood-opacity="0.5" result="PINK"></feFlood>        <feComposite in="PINK" in2="DILATED" operator="in" result="OUTLINE"></feComposite>        <feMerge>            <feMergeNode in="OUTLINE"></feMergeNode>            <feMergeNode in="SourceGraphic"></feMergeNode>        </feMerge>            <feColorMatrix type="matrix" values="0   0   0   0   0                0   1   0   0   0                0   0   0   0   0                0   0   0   1   0 "></feColorMatrix>    </filter></defs></svg>